<svg width="40" height="31" viewBox="0 0 40 31" fill="none" xmlns="http://www.w3.org/2000/svg">
<g clip-path="url(#clip0_508_5)">
<path d="M33.8839 2.53893C31.2558 1.33575 28.4814 0.48217 25.6316 0C25.2416 0.697147 24.8887 1.41442 24.5745 2.14881C21.5388 1.69137 18.4517 1.69137 15.416 2.14881C15.1016 1.41449 14.7488 0.697231 14.3589 0C11.5072 0.486242 8.73102 1.34185 6.10033 2.54523C0.877742 10.2721 -0.53802 17.8071 0.169861 25.2352C3.22834 27.4949 6.65165 29.2135 10.291 30.3162C11.1105 29.214 11.8356 28.0448 12.4587 26.8208C11.2752 26.3788 10.1329 25.8335 9.04512 25.1911C9.33142 24.9835 9.61142 24.7695 9.88199 24.5619C13.0473 26.0505 16.5021 26.8223 20 26.8223C23.4978 26.8223 26.9526 26.0505 30.118 24.5619C30.3917 24.7853 30.6717 24.9992 30.9548 25.1911C29.8649 25.8345 28.7205 26.3809 27.535 26.824C28.1573 28.0474 28.8825 29.2156 29.7027 30.3162C33.3451 29.2179 36.771 27.5002 39.8301 25.2383C40.6607 16.6242 38.4112 9.15841 33.8839 2.53893ZM13.3553 20.667C11.3827 20.667 9.753 18.8768 9.753 16.6745C9.753 14.4722 11.3261 12.6664 13.349 12.6664C15.372 12.6664 16.9891 14.4722 16.9545 16.6745C16.9199 18.8768 15.3657 20.667 13.3553 20.667ZM26.6446 20.667C24.6688 20.667 23.0454 18.8768 23.0454 16.6745C23.0454 14.4722 24.6185 12.6664 26.6446 12.6664C28.6707 12.6664 30.2753 14.4722 30.2406 16.6745C30.206 18.8768 28.655 20.667 26.6446 20.667Z" fill="black"/>
</g>
<defs>
<clipPath id="clip0_508_5">
<rect width="40" height="30.3162" fill="white"/>
</clipPath>
</defs>
</svg>
