<svg width="74" height="86" viewBox="0 0 74 86" fill="none" xmlns="http://www.w3.org/2000/svg">
<path d="M73.9068 64.0489V21.6763L37.2364 0.48999L0.568359 21.6763V64.0489L37.2364 85.2352L73.9068 64.0489Z" fill="white"/>
<path d="M52.8615 29.2749C50.152 28.0119 47.2186 27.0952 44.1628 26.5655C44.1361 26.5647 44.1094 26.5697 44.0848 26.5803C44.0601 26.5908 44.0381 26.6066 44.0202 26.6266C43.6536 27.2989 43.2258 28.1749 42.9406 28.8471C39.6995 28.3582 36.4034 28.3582 33.1623 28.8471C32.8771 28.1545 32.4493 27.2989 32.0622 26.6266C32.0418 26.5859 31.9807 26.5655 31.9196 26.5655C28.8639 27.0952 25.9508 28.0119 23.221 29.2749C23.2006 29.2749 23.1803 29.2953 23.1599 29.3157C17.6188 37.6068 16.091 45.6739 16.8447 53.6595C16.8447 53.7003 16.8651 53.741 16.9058 53.7614C20.5727 56.4504 24.097 58.0801 27.5805 59.1598C27.6416 59.1802 27.7027 59.1598 27.7231 59.1191C28.5379 57.9987 29.2713 56.8171 29.9028 55.5745C29.9436 55.493 29.9028 55.4115 29.8213 55.3911C28.6602 54.9429 27.5601 54.4133 26.4804 53.8021C26.3989 53.7614 26.3989 53.6392 26.4601 53.5781C26.6841 53.4151 26.9082 53.2317 27.1323 53.0688C27.1731 53.028 27.2342 53.028 27.2749 53.0484C34.2827 56.2467 41.8405 56.2467 48.7668 53.0484C48.8075 53.028 48.8686 53.028 48.9094 53.0688C49.1335 53.2521 49.3576 53.4151 49.5816 53.5984C49.6631 53.6595 49.6631 53.7818 49.5613 53.8225C48.502 54.454 47.3815 54.9633 46.2204 55.4115C46.1389 55.4319 46.1185 55.5337 46.1389 55.5948C46.7908 56.8375 47.5241 58.019 48.3186 59.1395C48.3797 59.1598 48.4408 59.1802 48.502 59.1598C52.0058 58.0801 55.5301 56.4504 59.197 53.7614C59.2377 53.741 59.2581 53.7003 59.2581 53.6595C60.1544 44.4313 57.771 36.4253 52.9429 29.3157C52.9226 29.2953 52.9022 29.2749 52.8615 29.2749ZM30.9621 48.7908C28.8639 48.7908 27.1119 46.8555 27.1119 44.472C27.1119 42.0886 28.8231 40.1533 30.9621 40.1533C33.1215 40.1533 34.8327 42.1089 34.8123 44.472C34.8123 46.8555 33.1011 48.7908 30.9621 48.7908ZM45.161 48.7908C43.0628 48.7908 41.3108 46.8555 41.3108 44.472C41.3108 42.0886 43.022 40.1533 45.161 40.1533C47.3204 40.1533 49.0316 42.1089 49.0112 44.472C49.0112 46.8555 47.3204 48.7908 45.161 48.7908Z" fill="#2B2D2D"/>
</svg>
