<svg width="71" height="82" viewBox="0 0 71 82" fill="none" xmlns="http://www.w3.org/2000/svg">
<path d="M70.7201 61.1151V20.6101L35.666 0.357666L0.614197 20.6101V61.1151L35.666 81.3675L70.7201 61.1151Z" fill="white"/>
<path d="M23.9755 24.3577H47.8852V58.3577H44.3755V42.7835H44.3411C43.9532 38.4791 40.3357 35.106 35.9304 35.106C31.525 35.106 27.9075 38.4791 27.5196 42.7835H27.4852V58.3577H23.9755V24.3577Z" fill="#2B2D2D"/>
<path d="M17.6142 29.1833L19.04 34.0092H20.2464V53.5318C19.6407 53.5318 19.1497 54.0228 19.1497 54.6286V55.9447H18.9303C18.3246 55.9447 17.8335 56.4357 17.8335 57.0415V58.3576H30.1174V57.0415C30.1174 56.4357 29.6264 55.9447 29.0207 55.9447H28.8013V54.6286C28.8013 54.0228 28.3102 53.5318 27.7045 53.5318H26.3884V29.1833H17.6142Z" fill="#2B2D2D"/>
<path d="M44.5949 53.5318C43.9891 53.5318 43.498 54.0228 43.498 54.6286V55.9447H43.2787C42.673 55.9447 42.1819 56.4357 42.1819 57.0415V58.3576H54.4658V57.0415C54.4658 56.4357 53.9748 55.9447 53.369 55.9447H53.1497V54.6286C53.1497 54.0228 52.6587 53.5318 52.0529 53.5318V34.0092H53.2594L54.6852 29.1833H45.911V53.5318H44.5949Z" fill="#2B2D2D"/>
</svg>
