<svg width="40" height="40" viewBox="0 0 40 40" fill="none" xmlns="http://www.w3.org/2000/svg">
<g clip-path="url(#clip0_509_4)">
<path d="M32 0H8C3.58172 0 0 3.58172 0 8V32C0 36.4183 3.58172 40 8 40H32C36.4183 40 40 36.4183 40 32V8C40 3.58172 36.4183 0 32 0Z" fill="black"/>
<path d="M10.3111 6.22223H29.6889V33.7777H26.8444V21.1555H26.8166C26.5022 17.6671 23.5703 14.9333 20 14.9333C16.4297 14.9333 13.4978 17.6671 13.1834 21.1555H13.1556V33.7777H10.3111V6.22223Z" fill="white"/>
<path d="M5.15555 10.1333L6.31111 14.0444H7.28887V29.8667C6.79795 29.8667 6.39999 30.2646 6.39999 30.7555V31.8222H6.22223C5.73131 31.8222 5.33331 32.2202 5.33331 32.7111V33.7777H15.2889V32.7111C15.2889 32.2202 14.8909 31.8222 14.4 31.8222H14.2222V30.7555C14.2222 30.2646 13.8242 29.8667 13.3333 29.8667H12.2667V10.1333H5.15555Z" fill="white"/>
<path d="M27.0222 29.8667C26.5313 29.8667 26.1333 30.2646 26.1333 30.7555V31.8222H25.9555C25.4646 31.8222 25.0667 32.2202 25.0667 32.7111V33.7777H35.0222V32.7111C35.0222 32.2202 34.6242 31.8222 34.1333 31.8222H33.9555V30.7555C33.9555 30.2646 33.5576 29.8667 33.0667 29.8667V14.0444H34.0444L35.2 10.1333H28.0889V29.8667H27.0222Z" fill="white"/>
</g>
<defs>
<clipPath id="clip0_509_4">
<rect width="40" height="40" fill="white"/>
</clipPath>
</defs>
</svg>
