<svg width="36" height="40" viewBox="0 0 36 40" fill="none" xmlns="http://www.w3.org/2000/svg">
<path d="M35.4012 29.871V9.95699L18.1671 0L0.934082 9.95699V29.871L18.1671 39.8279L35.4012 29.871Z" fill="white"/>
<path d="M18.0835 11C13.1215 11 9.0835 15.038 9.0835 20C9.0835 24.962 13.1215 29 18.0835 29C23.0455 29 27.0835 24.962 27.0835 20C27.0835 15.038 23.0455 11 18.0835 11ZM18.0835 12.5C22.2347 12.5 25.5835 15.8488 25.5835 20C25.5853 21.7955 24.9415 23.5317 23.7695 24.892C22.5975 26.2522 20.9755 27.1456 19.1995 27.4093V22.187H21.3355L21.6707 20.0173H19.1995V18.8322C19.1995 17.9323 19.4957 17.132 20.338 17.132H21.6917V15.239C21.454 15.2068 20.9507 15.137 19.9997 15.137C18.0137 15.137 16.8497 16.1855 16.8497 18.575V20.0173H14.8082V22.187H16.8497V27.3905C15.0983 27.1022 13.5064 26.2006 12.3585 24.8468C11.2106 23.4929 10.5815 21.775 10.5835 20C10.5835 15.8488 13.9322 12.5 18.0835 12.5Z" fill="black"/>
</svg>
