<svg width="40" height="40" viewBox="0 0 40 40" fill="none" xmlns="http://www.w3.org/2000/svg">
<path d="M12.6466 36.0319C27.558 36.0319 35.714 23.6776 35.714 12.9645C35.714 12.6137 35.714 12.2642 35.6903 11.9164C37.2771 10.7687 38.6465 9.34792 39.735 7.71987C38.2553 8.37539 36.6857 8.80567 35.0783 8.99535C36.7709 7.98199 38.0376 6.38864 38.6426 4.5112C37.051 5.45563 35.3101 6.12125 33.4946 6.47908C30.4242 3.21421 25.2885 3.05659 22.0236 6.12695C19.9179 8.10713 19.0248 11.0576 19.6782 13.8733C13.1603 13.5462 7.08673 10.4675 2.97008 5.4025C0.81823 9.10687 1.9172 13.8461 5.4802 16.225C4.18979 16.1868 2.92793 15.8386 1.80041 15.2103C1.80041 15.2436 1.80041 15.2783 1.80041 15.313C1.80129 19.1724 4.52172 22.4961 8.30468 23.2605C7.11131 23.5858 5.85867 23.6337 4.64378 23.3997C5.70587 26.7023 8.74945 28.9648 12.218 29.0298C9.34702 31.2861 5.80071 32.5107 2.14947 32.5071C1.50448 32.5058 0.86038 32.4668 0.219788 32.3899C3.92723 34.7692 8.24146 36.0311 12.6466 36.0254" fill="black"/>
</svg>
